<mxfile host="app.diagrams.net" agent="Mozilla/5.0 (X11; Linux x86_64) AppleWebKit/537.36 (KHTML, like Gecko) Chrome/140.0.0.0 Safari/537.36" version="28.2.5">
  <diagram name="Page-1" id="gIB2PcYGDF00z7CizTmK">
    <mxGraphModel dx="1808" dy="804" grid="1" gridSize="10" guides="1" tooltips="1" connect="1" arrows="1" fold="1" page="1" pageScale="1" pageWidth="850" pageHeight="1100" math="0" shadow="0">
      <root>
        <mxCell id="0" />
        <mxCell id="1" parent="0" />
        <mxCell id="YDYw6KRyvKXsk-J97F-8-2" value="" style="rounded=0;orthogonalLoop=1;jettySize=auto;html=1;exitX=0.5;exitY=1;exitDx=0;exitDy=0;" edge="1" parent="1" source="FaVO4pRgcLJsVCBSYs57-3" target="YDYw6KRyvKXsk-J97F-8-1">
          <mxGeometry relative="1" as="geometry" />
        </mxCell>
        <mxCell id="FaVO4pRgcLJsVCBSYs57-3" value="load_config_node" style="rounded=1;whiteSpace=wrap;html=1;" parent="1" vertex="1">
          <mxGeometry x="380" y="100" width="120" height="60" as="geometry" />
        </mxCell>
        <mxCell id="HinQC5C575GeXbxiz5a4-1" value="&lt;font style=&quot;font-size: 18px;&quot;&gt;Weather MCP Server&lt;/font&gt;" style="text;html=1;align=center;verticalAlign=middle;resizable=0;points=[];autosize=1;strokeColor=none;fillColor=none;" parent="1" vertex="1">
          <mxGeometry x="10" y="40" width="190" height="40" as="geometry" />
        </mxCell>
        <mxCell id="YDYw6KRyvKXsk-J97F-8-6" value="Events exist" style="rounded=0;orthogonalLoop=1;jettySize=auto;html=1;exitX=0;exitY=1;exitDx=0;exitDy=0;entryX=0.5;entryY=0;entryDx=0;entryDy=0;" edge="1" parent="1" source="YDYw6KRyvKXsk-J97F-8-1" target="YDYw6KRyvKXsk-J97F-8-4">
          <mxGeometry relative="1" as="geometry" />
        </mxCell>
        <mxCell id="YDYw6KRyvKXsk-J97F-8-7" value="No events" style="rounded=0;orthogonalLoop=1;jettySize=auto;html=1;exitX=1;exitY=1;exitDx=0;exitDy=0;entryX=0.5;entryY=0;entryDx=0;entryDy=0;" edge="1" parent="1" source="YDYw6KRyvKXsk-J97F-8-1" target="YDYw6KRyvKXsk-J97F-8-5">
          <mxGeometry relative="1" as="geometry" />
        </mxCell>
        <mxCell id="YDYw6KRyvKXsk-J97F-8-1" value="Calendar_node" style="rounded=1;whiteSpace=wrap;html=1;" vertex="1" parent="1">
          <mxGeometry x="380" y="240" width="120" height="60" as="geometry" />
        </mxCell>
        <mxCell id="YDYw6KRyvKXsk-J97F-8-9" style="edgeStyle=orthogonalEdgeStyle;rounded=0;orthogonalLoop=1;jettySize=auto;html=1;exitX=0.5;exitY=1;exitDx=0;exitDy=0;entryX=0.5;entryY=0;entryDx=0;entryDy=0;" edge="1" parent="1" source="YDYw6KRyvKXsk-J97F-8-4" target="YDYw6KRyvKXsk-J97F-8-8">
          <mxGeometry relative="1" as="geometry" />
        </mxCell>
        <mxCell id="YDYw6KRyvKXsk-J97F-8-4" value="Calendar_node" style="rounded=1;whiteSpace=wrap;html=1;" vertex="1" parent="1">
          <mxGeometry x="200" y="390" width="120" height="60" as="geometry" />
        </mxCell>
        <mxCell id="YDYw6KRyvKXsk-J97F-8-25" style="rounded=0;orthogonalLoop=1;jettySize=auto;html=1;exitX=0.5;exitY=1;exitDx=0;exitDy=0;entryX=1;entryY=0;entryDx=0;entryDy=0;" edge="1" parent="1" source="YDYw6KRyvKXsk-J97F-8-5" target="YDYw6KRyvKXsk-J97F-8-10">
          <mxGeometry relative="1" as="geometry" />
        </mxCell>
        <mxCell id="YDYw6KRyvKXsk-J97F-8-5" value="Calendar_node" style="rounded=1;whiteSpace=wrap;html=1;" vertex="1" parent="1">
          <mxGeometry x="590" y="520" width="120" height="60" as="geometry" />
        </mxCell>
        <mxCell id="YDYw6KRyvKXsk-J97F-8-26" style="rounded=0;orthogonalLoop=1;jettySize=auto;html=1;exitX=1;exitY=1;exitDx=0;exitDy=0;entryX=0;entryY=0;entryDx=0;entryDy=0;" edge="1" parent="1" source="YDYw6KRyvKXsk-J97F-8-8" target="YDYw6KRyvKXsk-J97F-8-10">
          <mxGeometry relative="1" as="geometry" />
        </mxCell>
        <mxCell id="YDYw6KRyvKXsk-J97F-8-8" value="Transportation_node" style="rounded=1;whiteSpace=wrap;html=1;" vertex="1" parent="1">
          <mxGeometry x="200" y="520" width="120" height="60" as="geometry" />
        </mxCell>
        <mxCell id="YDYw6KRyvKXsk-J97F-8-12" style="edgeStyle=orthogonalEdgeStyle;rounded=0;orthogonalLoop=1;jettySize=auto;html=1;entryX=0.5;entryY=0;entryDx=0;entryDy=0;" edge="1" parent="1" source="YDYw6KRyvKXsk-J97F-8-10" target="YDYw6KRyvKXsk-J97F-8-11">
          <mxGeometry relative="1" as="geometry" />
        </mxCell>
        <mxCell id="YDYw6KRyvKXsk-J97F-8-10" value="mail_node" style="rounded=1;whiteSpace=wrap;html=1;" vertex="1" parent="1">
          <mxGeometry x="380" y="630" width="120" height="60" as="geometry" />
        </mxCell>
        <mxCell id="YDYw6KRyvKXsk-J97F-8-15" value="MCP Tool cant find" style="rounded=0;orthogonalLoop=1;jettySize=auto;html=1;exitX=1;exitY=1;exitDx=0;exitDy=0;" edge="1" parent="1" source="YDYw6KRyvKXsk-J97F-8-11" target="YDYw6KRyvKXsk-J97F-8-14">
          <mxGeometry relative="1" as="geometry" />
        </mxCell>
        <mxCell id="YDYw6KRyvKXsk-J97F-8-16" value="MCP Tool find it" style="rounded=0;orthogonalLoop=1;jettySize=auto;html=1;exitX=0.5;exitY=1;exitDx=0;exitDy=0;entryX=0.5;entryY=0;entryDx=0;entryDy=0;" edge="1" parent="1" source="YDYw6KRyvKXsk-J97F-8-11" target="YDYw6KRyvKXsk-J97F-8-13">
          <mxGeometry relative="1" as="geometry">
            <mxPoint x="440" y="810" as="sourcePoint" />
            <mxPoint x="493.33333333333326" y="1050" as="targetPoint" />
          </mxGeometry>
        </mxCell>
        <mxCell id="YDYw6KRyvKXsk-J97F-8-11" value="Location-&amp;gt;GeoLocation_node" style="rounded=1;whiteSpace=wrap;html=1;" vertex="1" parent="1">
          <mxGeometry x="380" y="760" width="120" height="60" as="geometry" />
        </mxCell>
        <mxCell id="YDYw6KRyvKXsk-J97F-8-13" value="Weather Node" style="rounded=1;whiteSpace=wrap;html=1;" vertex="1" parent="1">
          <mxGeometry x="380" y="1060" width="120" height="60" as="geometry" />
        </mxCell>
        <mxCell id="YDYw6KRyvKXsk-J97F-8-19" style="edgeStyle=orthogonalEdgeStyle;rounded=0;orthogonalLoop=1;jettySize=auto;html=1;exitX=0.5;exitY=1;exitDx=0;exitDy=0;entryX=0.5;entryY=0;entryDx=0;entryDy=0;" edge="1" parent="1" source="YDYw6KRyvKXsk-J97F-8-14" target="YDYw6KRyvKXsk-J97F-8-17">
          <mxGeometry relative="1" as="geometry" />
        </mxCell>
        <mxCell id="YDYw6KRyvKXsk-J97F-8-14" value="Check webb for GeoLocation" style="rounded=1;whiteSpace=wrap;html=1;" vertex="1" parent="1">
          <mxGeometry x="590" y="860" width="120" height="60" as="geometry" />
        </mxCell>
        <mxCell id="YDYw6KRyvKXsk-J97F-8-18" value="Found" style="rounded=0;orthogonalLoop=1;jettySize=auto;html=1;exitX=0;exitY=1;exitDx=0;exitDy=0;entryX=1;entryY=0;entryDx=0;entryDy=0;" edge="1" parent="1" source="YDYw6KRyvKXsk-J97F-8-17" target="YDYw6KRyvKXsk-J97F-8-13">
          <mxGeometry relative="1" as="geometry" />
        </mxCell>
        <mxCell id="YDYw6KRyvKXsk-J97F-8-17" value="Use webb MCP Tool to find" style="rounded=1;whiteSpace=wrap;html=1;" vertex="1" parent="1">
          <mxGeometry x="590" y="970" width="120" height="60" as="geometry" />
        </mxCell>
        <mxCell id="YDYw6KRyvKXsk-J97F-8-24" value="Cant Find" style="edgeStyle=orthogonalEdgeStyle;rounded=0;orthogonalLoop=1;jettySize=auto;html=1;exitX=0.5;exitY=1;exitDx=0;exitDy=0;entryX=1;entryY=0.5;entryDx=0;entryDy=0;" edge="1" parent="1" source="YDYw6KRyvKXsk-J97F-8-17" target="YDYw6KRyvKXsk-J97F-8-17">
          <mxGeometry relative="1" as="geometry" />
        </mxCell>
      </root>
    </mxGraphModel>
  </diagram>
</mxfile>
